<svg width="44" height="44" viewBox="0 0 44 44" fill="none" xmlns="http://www.w3.org/2000/svg">
<rect width="44" height="44" fill="#191A1C"/>
<path d="M12.6335 15.642C14.295 15.642 15.642 14.295 15.642 12.6335C15.642 10.972 14.295 9.625 12.6335 9.625C10.972 9.625 9.625 10.972 9.625 12.6335C9.625 14.295 10.972 15.642 12.6335 15.642Z" fill="white"/>
<path d="M18.4828 17.9217V34.6129H23.6651V26.3587C23.6651 24.1807 24.0749 22.0715 26.7754 22.0715C29.4388 22.0715 29.4718 24.5616 29.4718 26.4962V34.6142H34.6569V25.4609C34.6569 20.9646 33.6889 17.5092 28.4336 17.5092C25.9105 17.5092 24.2193 18.8939 23.5276 20.2042H23.4575V17.9217H18.4828ZM10.0375 17.9217H15.2281V34.6129H10.0375V17.9217Z" fill="white"/>
</svg>
