<svg width="219" height="100" viewBox="0 0 219 100" fill="none" xmlns="http://www.w3.org/2000/svg">
<rect width="219" height="70" fill="#191A1C"/>
<path d="M24 19.632H33.0285C34.3828 19.632 35.5866 19.8728 36.6701 20.3242C37.7535 20.8057 38.6864 21.4377 39.4689 22.2503C40.2514 23.0628 40.8533 23.9958 41.2746 25.0792C41.6959 26.1325 41.9066 27.2762 41.9066 28.4499C41.9066 29.6537 41.6959 30.7672 41.2746 31.8205C40.8533 32.8739 40.2514 33.8068 39.4689 34.6194C38.6864 35.4319 37.7535 36.0639 36.6701 36.5455C35.5866 37.027 34.3527 37.2377 33.0285 37.2377H28.123V44.7915H24V19.632ZM32.9984 33.536C33.7207 33.536 34.3828 33.3855 34.9546 33.1146C35.5264 32.8438 36.0381 32.4525 36.4594 32.0011C36.8807 31.5196 37.1817 31.008 37.4224 30.376C37.6632 29.7741 37.7535 29.112 37.7535 28.4198C37.7535 27.7276 37.6331 27.0655 37.4224 26.4636C37.1817 25.8617 36.8807 25.32 36.4594 24.8385C36.0381 24.3569 35.5565 23.9958 34.9546 23.7249C34.3527 23.4541 33.7207 23.3036 32.9984 23.3036H28.123V33.5059H32.9984V33.536Z" fill="white"/>
<path d="M54.6068 31.6701C54.3058 31.6099 54.0349 31.5497 53.8243 31.5196C53.6136 31.4895 53.3729 31.4895 53.0418 31.4895C51.3565 31.4895 50.0925 31.971 49.1896 32.934C48.3169 33.8971 47.8654 35.4319 47.8654 37.5386V44.7614H43.9531V28.0586H47.8654V30.7672C48.046 30.376 48.3169 30.0148 48.678 29.6838C49.0392 29.3226 49.4304 29.0217 49.9119 28.7508C50.3934 28.48 50.875 28.2693 51.4167 28.0887C51.9584 27.9383 52.5001 27.848 53.0418 27.848C53.6738 27.848 54.1854 27.9383 54.5767 28.0887V31.6701H54.6068Z" fill="white"/>
<path d="M55.5999 21.9192C55.5999 21.1067 55.8708 20.4145 56.4426 19.8427C57.0144 19.2709 57.6765 19 58.4589 19C59.2715 19 59.9637 19.2709 60.5355 19.8427C61.1073 20.4145 61.3782 21.1067 61.3782 21.9192C61.3782 22.7017 61.1073 23.3939 60.5355 23.9356C59.9637 24.5074 59.2715 24.7783 58.4589 24.7783C57.6765 24.7783 56.9843 24.5074 56.4426 23.9356C55.9009 23.3939 55.5999 22.7318 55.5999 21.9192ZM56.5328 28.0586H60.4452V44.8216H56.5328V28.0586Z" fill="white"/>
<path d="M75.0414 34.1679C74.921 33.2651 74.5598 32.5127 73.988 31.971C73.3861 31.3992 72.4231 31.1283 71.0989 31.1283C70.3465 31.1283 69.6844 31.2788 69.1126 31.5497C68.5709 31.8506 68.0894 32.2419 67.6981 32.7234C67.3069 33.2049 67.0361 33.7767 66.8555 34.4087C66.6749 35.0407 66.5846 35.7329 66.5846 36.4552C66.5846 37.1775 66.6749 37.8696 66.8555 38.5016C67.0361 39.1336 67.3069 39.7055 67.6981 40.187C68.0894 40.6685 68.5709 41.0597 69.1728 41.3306C69.7747 41.6315 70.497 41.7519 71.3397 41.7519C72.4833 41.7519 73.3259 41.5112 73.8676 41.0296C74.4094 40.5481 74.8006 39.886 75.0715 39.0434H78.9838C78.8334 39.9161 78.5625 40.7287 78.2013 41.4811C77.8101 42.2334 77.2985 42.8955 76.6364 43.4673C75.9743 44.0392 75.1918 44.4605 74.2589 44.7915C73.3259 45.0925 72.2726 45.2731 71.0387 45.2731C69.6844 45.2731 68.4806 45.0323 67.4273 44.5508C66.374 44.0692 65.5012 43.4072 64.809 42.5946C64.0867 41.782 63.5751 40.8491 63.214 39.7957C62.8528 38.7424 62.6723 37.6289 62.6723 36.4853C62.6723 35.3718 62.8528 34.2582 63.214 33.2049C63.5751 32.1516 64.1168 31.1885 64.809 30.376C65.5012 29.5634 66.374 28.9013 67.4273 28.4198C68.4505 27.9383 69.6543 27.6975 71.0086 27.6975C72.3629 27.6975 73.5366 27.8781 74.4997 28.2693C75.4627 28.6605 76.2753 29.1421 76.9073 29.7741C77.5393 30.376 78.0208 31.0681 78.3518 31.8506C78.6829 32.6331 78.8634 33.4156 78.9537 34.2281H75.0414V34.1679Z" fill="white"/>
<path d="M84.1301 37.5988C84.1903 38.2007 84.2806 38.7725 84.4611 39.2841C84.6417 39.8258 84.8825 40.2773 85.2436 40.6685C85.6047 41.0597 86.0261 41.3607 86.5979 41.6014C87.1396 41.8422 87.8318 41.9325 88.6444 41.9325C89.7579 41.9325 90.5705 41.7218 91.0821 41.2704C91.5937 40.8491 91.9548 40.3375 92.1956 39.7356H96.1381C96.0177 40.4578 95.7468 41.15 95.3556 41.8121C94.9643 42.4742 94.4527 43.046 93.7906 43.5576C93.1586 44.0693 92.3762 44.4605 91.5335 44.7614C90.6607 45.0624 89.6977 45.2129 88.6143 45.2129C87.1998 45.2129 85.9659 44.9721 84.9427 44.5207C83.8893 44.0692 83.0166 43.4373 82.3244 42.6548C81.6322 41.8723 81.1206 40.9394 80.7594 39.8559C80.3983 38.7725 80.2478 37.6289 80.2478 36.395C80.2478 35.1611 80.4284 33.9874 80.8196 32.904C81.1808 31.8205 81.7225 30.8876 82.4147 30.1051C83.1069 29.3226 83.9796 28.6906 85.0028 28.2693C86.0261 27.8179 87.1998 27.6072 88.524 27.6072C89.6074 27.6072 90.6005 27.7878 91.5636 28.179C92.4965 28.5703 93.3392 29.0819 94.0314 29.7741C94.7537 30.4662 95.2954 31.2487 95.6866 32.1516C96.0779 33.0544 96.2885 34.0476 96.2885 35.131C96.2885 35.4319 96.2885 35.763 96.2584 36.1542C96.2584 36.5455 96.1982 37.027 96.108 37.5687H84.1301V37.5988ZM88.4036 30.5565C87.1697 30.5565 86.1766 30.9177 85.3339 31.6099C84.5213 32.3021 84.1 33.3253 84.1 34.7097H92.4364C92.4364 33.4156 92.0451 32.3923 91.2927 31.6701C90.5704 30.9177 89.6074 30.5565 88.4036 30.5565Z" fill="white"/>
<path d="M102.819 36.5756C102.819 38.2308 103.271 39.4948 104.173 40.3976C105.076 41.2704 106.25 41.7218 107.695 41.7218C108.266 41.7218 108.808 41.6315 109.32 41.451C109.831 41.2704 110.253 41.0296 110.644 40.6986C111.005 40.3675 111.306 39.9763 111.517 39.5249C111.727 39.0735 111.848 38.5618 111.848 37.99C111.848 37.358 111.727 36.8163 111.456 36.3649C111.216 35.9436 110.885 35.5824 110.493 35.2815C110.102 34.9805 109.681 34.7398 109.199 34.5291C108.718 34.3184 108.296 34.1379 107.845 34.0175C106.701 33.5961 105.618 33.2049 104.625 32.7836C103.632 32.3622 102.729 31.8506 101.977 31.2788C101.224 30.6769 100.622 29.9847 100.201 29.1421C99.7796 28.2994 99.5388 27.2461 99.5388 25.9821C99.5388 24.9588 99.7495 24.0259 100.171 23.1531C100.592 22.3105 101.164 21.5581 101.856 20.9562C102.548 20.3543 103.391 19.8728 104.324 19.5417C105.257 19.2107 106.28 19.0602 107.333 19.0602C108.447 19.0602 109.5 19.2408 110.493 19.632C111.487 20.0232 112.329 20.5649 113.052 21.2571C113.774 21.9493 114.346 22.792 114.737 23.7249C115.158 24.688 115.339 25.7413 115.339 26.915H111.216C111.216 25.6811 110.885 24.6579 110.223 23.9055C109.56 23.1531 108.628 22.7619 107.454 22.7619C106.431 22.7619 105.528 23.0327 104.805 23.5444C104.053 24.056 103.692 24.8685 103.692 25.952C103.692 26.4636 103.782 26.915 103.993 27.3063C104.204 27.6975 104.474 28.0586 104.805 28.3295C105.167 28.6304 105.558 28.8712 105.979 29.0819C106.4 29.2925 106.852 29.5032 107.333 29.6537C108.327 30.0148 109.32 30.4061 110.343 30.7973C111.366 31.2186 112.299 31.7001 113.142 32.302C113.984 32.904 114.677 33.6262 115.188 34.4689C115.7 35.3116 115.971 36.3348 115.971 37.5386C115.971 38.8327 115.73 39.9763 115.279 40.9394C114.827 41.9325 114.195 42.7451 113.413 43.4072C112.63 44.0692 111.697 44.5809 110.674 44.9119C109.621 45.243 108.537 45.4235 107.364 45.4235C106.22 45.4235 105.106 45.2129 104.083 44.8216C103.03 44.4304 102.127 43.8586 101.345 43.1062C100.562 42.3538 99.93 41.4209 99.4485 40.3374C98.967 39.254 98.7262 37.99 98.7262 36.5756H102.819Z" fill="white"/>
<path d="M122.712 30.3158C123.224 29.4731 123.976 28.811 124.969 28.3295C125.932 27.848 126.925 27.6072 127.888 27.6072C129.152 27.6072 130.326 27.848 131.379 28.2994C132.433 28.7809 133.336 29.4129 134.088 30.2255C134.84 31.0381 135.442 31.971 135.834 33.0544C136.255 34.1078 136.466 35.2514 136.466 36.4251C136.466 37.6289 136.255 38.7424 135.834 39.7957C135.412 40.8491 134.84 41.782 134.088 42.5946C133.336 43.4072 132.433 44.0392 131.379 44.5207C130.326 45.0022 129.152 45.2129 127.888 45.2129C126.895 45.2129 125.932 44.9721 124.969 44.4906C124.006 44.0091 123.254 43.347 122.712 42.5043V53.1881H118.8V28.0586H122.712V30.3158ZM127.678 31.0983C126.895 31.0983 126.233 31.2487 125.601 31.5196C124.999 31.8205 124.458 32.1817 124.036 32.6632C123.615 33.1447 123.284 33.7165 123.043 34.3485C122.802 34.9805 122.712 35.6727 122.712 36.395C122.712 37.1173 122.832 37.8095 123.043 38.4415C123.284 39.0735 123.615 39.6453 124.036 40.1268C124.458 40.6083 124.999 40.9995 125.601 41.2704C126.203 41.5714 126.895 41.6917 127.678 41.6917C128.43 41.6917 129.092 41.5413 129.694 41.2704C130.296 40.9695 130.808 40.6083 131.229 40.1268C131.65 39.6453 131.981 39.0735 132.222 38.4415C132.463 37.7794 132.553 37.1173 132.553 36.395C132.553 35.6727 132.433 34.9805 132.222 34.3485C131.981 33.6864 131.65 33.1447 131.229 32.6632C130.808 32.1817 130.296 31.7904 129.694 31.5196C129.092 31.2487 128.43 31.0983 127.678 31.0983Z" fill="white"/>
<path d="M138.181 21.9192C138.181 21.1067 138.452 20.4145 139.024 19.8427C139.595 19.2709 140.258 19 141.04 19C141.853 19 142.545 19.2709 143.117 19.8427C143.688 20.4145 143.959 21.1067 143.959 21.9192C143.959 22.7017 143.688 23.3939 143.117 23.9356C142.545 24.5074 141.853 24.7783 141.04 24.7783C140.258 24.7783 139.565 24.5074 139.024 23.9356C138.452 23.3939 138.181 22.7318 138.181 21.9192ZM139.114 28.0586H143.026V44.8216H139.114V28.0586Z" fill="white"/>
<path d="M159.338 42.5344C158.796 43.3771 158.074 44.0392 157.081 44.5207C156.118 45.0022 155.125 45.243 154.161 45.243C152.897 45.243 151.724 45.0022 150.67 44.5508C149.617 44.0693 148.714 43.4372 147.962 42.6247C147.21 41.8121 146.608 40.8792 146.186 39.8258C145.765 38.7725 145.554 37.659 145.554 36.4552C145.554 35.2815 145.765 34.1679 146.186 33.0845C146.608 32.0312 147.179 31.0682 147.962 30.2556C148.714 29.443 149.617 28.811 150.67 28.3295C151.724 27.848 152.897 27.6373 154.161 27.6373C155.155 27.6373 156.118 27.8781 157.081 28.3596C158.044 28.8411 158.796 29.5032 159.338 30.3459V19.632H163.25V44.7915H159.338V42.5344ZM154.402 41.7519C155.155 41.7519 155.817 41.6015 156.419 41.3306C157.021 41.0296 157.562 40.6685 157.984 40.187C158.405 39.7055 158.766 39.1336 158.977 38.5016C159.217 37.8396 159.338 37.1775 159.338 36.4552C159.338 35.7329 159.217 35.0407 158.977 34.4087C158.736 33.7767 158.405 33.2049 157.984 32.7234C157.562 32.2419 157.021 31.8506 156.419 31.5798C155.817 31.2788 155.125 31.1584 154.402 31.1584C153.65 31.1584 152.988 31.3089 152.386 31.5798C151.784 31.8807 151.272 32.2419 150.851 32.7234C150.43 33.2049 150.099 33.7767 149.858 34.4087C149.617 35.0407 149.527 35.7329 149.527 36.4552C149.527 37.1775 149.647 37.8697 149.858 38.5016C150.099 39.1336 150.43 39.7055 150.851 40.187C151.272 40.6685 151.784 41.0597 152.386 41.3306C152.988 41.6015 153.65 41.7519 154.402 41.7519Z" fill="white"/>
<path d="M169.781 37.5988C169.841 38.2007 169.931 38.7725 170.112 39.2841C170.293 39.8258 170.533 40.2773 170.894 40.6685C171.256 41.0597 171.677 41.3607 172.249 41.6014C172.79 41.8422 173.483 41.9325 174.295 41.9325C175.409 41.9325 176.251 41.7218 176.733 41.2704C177.244 40.8491 177.606 40.3375 177.846 39.7356H181.789C181.668 40.4578 181.398 41.15 181.006 41.8121C180.615 42.4742 180.104 43.046 179.441 43.5576C178.809 44.0693 178.027 44.4605 177.184 44.7614C176.312 45.0624 175.348 45.2129 174.265 45.2129C172.851 45.2129 171.617 44.9721 170.593 44.5207C169.54 44.0692 168.667 43.4373 167.975 42.6548C167.283 41.8723 166.771 40.9394 166.41 39.8559C166.049 38.7725 165.899 37.6289 165.899 36.395C165.899 35.1611 166.079 33.9874 166.47 32.904C166.832 31.8205 167.373 30.8876 168.065 30.1051C168.758 29.3226 169.63 28.6906 170.654 28.2693C171.677 27.8179 172.851 27.6072 174.175 27.6072C175.258 27.6072 176.251 27.7878 177.214 28.179C178.147 28.5703 178.99 29.0819 179.682 29.7741C180.374 30.4662 180.946 31.2487 181.337 32.1516C181.729 33.0544 181.939 34.0476 181.939 35.131C181.939 35.4319 181.939 35.763 181.909 36.1542C181.909 36.5455 181.849 37.027 181.759 37.5687H169.781V37.5988ZM174.054 30.5565C172.821 30.5565 171.827 30.9177 170.985 31.6099C170.172 32.3021 169.751 33.3253 169.751 34.7097H178.087C178.087 33.4156 177.696 32.3923 176.944 31.6701C176.221 30.9177 175.258 30.5565 174.054 30.5565Z" fill="white"/>
<path d="M195.362 31.6701C195.061 31.6099 194.79 31.5497 194.579 31.5196C194.369 31.4895 194.128 31.4895 193.797 31.4895C192.111 31.4895 190.847 31.971 189.945 32.934C189.042 33.8971 188.62 35.4319 188.62 37.5386V44.7614H184.708V28.0586H188.62V30.7672C188.801 30.376 189.072 30.0148 189.433 29.6838C189.794 29.3226 190.185 29.0217 190.667 28.7508C191.148 28.48 191.63 28.2693 192.172 28.0887C192.713 27.9383 193.255 27.848 193.797 27.848C194.429 27.848 194.94 27.9383 195.332 28.0887V31.6701H195.362Z" fill="white"/>
<rect y="95" width="92" height="5" fill="#40CAFF"/>
</svg>
